STARTFONT 2.1
FONT -Bitstream-Terminal-Bold-R-Normal--36-280-100-100-C-220-DEC-DECtech
SIZE 28 100 100
FONTBOUNDINGBOX 22 40 0 -10

STARTPROPERTIES 25
CHARSET_REGISTRY "DEC"
CHARSET_ENCODING "DECtech"
CAP_HEIGHT 22
X_HEIGHT 18
AVERAGE_WIDTH 220
FONTNAME_REGISTRY ""
FAMILY_NAME "Terminal"
FOUNDRY "Bitstream"
WEIGHT_NAME "Bold"
SETWIDTH_NAME "Normal"
SLANT "R"
ADD_STYLE_NAME ""
PIXEL_SIZE 36
POINT_SIZE 280
RESOLUTION_X 100
RESOLUTION_Y 100
SPACING "C"
CHARSET_COLLECTIONS "DEC-DECtech"
FULL_NAME "Terminal Bold"
COPYRIGHT "Copyright (c) 1988 Bitstream, Inc., Copyright 1990 Digital Equipment Corp. All rights reserved."
WEIGHT 10
QUAD_WIDTH 22
DEFAULT_CHAR 159
FONT_DESCENT 10
FONT_ASCENT 30
ENDPROPERTIES

CHARS 181

STARTCHAR space
ENCODING 32
SWIDTH 565 0
DWIDTH 22 0
BBX 1 1 0 0
BITMAP
00
ENDCHAR

STARTCHAR exclam
ENCODING 33
SWIDTH 565 0
DWIDTH 22 0
BBX 10 22 6 0
BITMAP
3F00
3F00
3F00
3F00
3F00
3F00
3F00
3F00
3F00
3F00
3F00
3F00
3F00
3F00
0000
0000
3F00
7F80
FFC0
FFC0
7F80
3F00
ENDCHAR

STARTCHAR quotedbl
ENCODING 34
SWIDTH 565 0
DWIDTH 22 0
BBX 12 10 5 16
BITMAP
F0F0
F0F0
F0F0
F0F0
F0F0
F0F0
F0F0
F0F0
F0F0
F0F0
ENDCHAR

STARTCHAR numbersign
ENCODING 35
SWIDTH 565 0
DWIDTH 22 0
BBX 22 28 0 -6
BITMAP
1F87E0
1F87E0
1F87E0
1F87E0
1F87E0
1F87E0
1F87E0
1F87E0
FFFFFC
FFFFFC
FFFFFC
FFFFFC
1F87E0
1F87E0
1F87E0
1F87E0
FFFFFC
FFFFFC
FFFFFC
FFFFFC
1F87E0
1F87E0
1F87E0
1F87E0
1F87E0
1F87E0
1F87E0
1F87E0
ENDCHAR

STARTCHAR dollar
ENCODING 36
SWIDTH 565 0
DWIDTH 22 0
BBX 18 32 2 -6
BITMAP
00F000
00F000
00F000
00F000
0FF3C0
3FFBC0
7FFFC0
7FFFC0
FC07C0
FC03C0
FC03C0
FC03C0
7E0000
7FF000
3FFE00
0FFF80
00FF80
000FC0
F00FC0
F00FC0
F80FC0
FC0FC0
FFFF80
FFFF80
F7FF00
F3FC00
03C000
03C000
03C000
03C000
03C000
03C000
ENDCHAR

STARTCHAR percent
ENCODING 37
SWIDTH 565 0
DWIDTH 22 0
BBX 20 22 1 0
BITMAP
3FC000
7FE000
FFF000
F9F000
F0F000
F0F000
F9F0E0
FFF3E0
7FEF80
3FFE00
007800
01E000
07FFC0
1F7FE0
7CFFF0
70F9F0
00F0F0
00F0F0
00F9F0
00FFF0
007FE0
003FC0
ENDCHAR

STARTCHAR ampersand
ENCODING 38
SWIDTH 565 0
DWIDTH 22 0
BBX 18 22 2 0
BITMAP
07F300
1FFB00
1FFF00
3FFF00
3F0F00
3F0F00
1F0000
1F0000
0F83C0
0F83C0
3FC3C0
7FE3C0
7DE380
F8F380
F8FF80
F87F00
F83F00
FC3F00
7FFFC0
7FFFC0
3FF3C0
0FE3C0
ENDCHAR

STARTCHAR quoteright
ENCODING 39
SWIDTH 565 0
DWIDTH 22 0
BBX 11 10 5 16
BITMAP
1FE0
1FC0
1F80
3F80
3F00
3E00
7E00
7C00
7800
F800
ENDCHAR

STARTCHAR parenleft
ENCODING 40
SWIDTH 565 0
DWIDTH 22 0
BBX 11 32 5 -4
BITMAP
01E0
01C0
0780
0780
1F00
1F00
3E00
3E00
7E00
7C00
7C00
FC00
FC00
FC00
FC00
FC00
FC00
FC00
FC00
FC00
FC00
7C00
7C00
7E00
3E00
3E00
1F00
1F00
0780
0780
01C0
01E0
ENDCHAR

STARTCHAR parenright
ENCODING 41
SWIDTH 565 0
DWIDTH 22 0
BBX 11 32 5 -4
BITMAP
F000
7000
3C00
3C00
1F00
1F00
0F80
0F80
0FC0
07C0
07C0
07E0
07E0
07E0
07E0
07E0
07E0
07E0
07E0
07E0
07E0
07C0
07C0
0FC0
0F80
0F80
1F00
1F00
3C00
3C00
7000
F000
ENDCHAR

STARTCHAR asterisk
ENCODING 42
SWIDTH 565 0
DWIDTH 22 0
BBX 18 14 2 4
BITMAP
01E000
01E000
01E000
01E000
F3F3C0
FFFFC0
FFFFC0
3FFF00
0FFC00
0FFC00
1F3E00
3E1F00
3C0F00
7C0F80
ENDCHAR

STARTCHAR plus
ENCODING 43
SWIDTH 565 0
DWIDTH 22 0
BBX 18 20 2 0
BITMAP
03F000
03F000
03F000
03F000
03F000
03F000
03F000
03F000
FFFFC0
FFFFC0
FFFFC0
FFFFC0
03F000
03F000
03F000
03F000
03F000
03F000
03F000
03F000
ENDCHAR

STARTCHAR comma
ENCODING 44
SWIDTH 565 0
DWIDTH 22 0
BBX 11 12 5 -6
BITMAP
1FE0
1FC0
1FC0
1F80
3F80
3F00
3F00
3E00
7E00
7C00
7C00
F800
ENDCHAR

STARTCHAR minus
ENCODING 45
SWIDTH 565 0
DWIDTH 22 0
BBX 18 4 2 6
BITMAP
FFFFC0
FFFFC0
FFFFC0
FFFFC0
ENDCHAR

STARTCHAR period
ENCODING 46
SWIDTH 565 0
DWIDTH 22 0
BBX 8 8 7 0
BITMAP
3C
7E
FF
FF
FF
FF
7E
3C
ENDCHAR

STARTCHAR slash
ENCODING 47
SWIDTH 565 0
DWIDTH 22 0
BBX 17 28 3 -3
BITMAP
000F80
000F80
001F80
001F00
001F00
003E00
003E00
007C00
007C00
00F800
00F800
01F000
01F000
03E000
03E000
07C000
07C000
0F8000
0F8000
1F0000
1F0000
3E0000
3E0000
7C0000
7C0000
FC0000
F80000
F80000
ENDCHAR

STARTCHAR zero
ENCODING 48
SWIDTH 565 0
DWIDTH 22 0
BBX 19 22 1 0
BITMAP
01F000
07FC00
0FFE00
1FFF00
3E0F80
3E0F80
7C07C0
7C07C0
FC07E0
FC07E0
FC07E0
FC07E0
FC07E0
FC07E0
7C07C0
7C07C0
3E0F80
3E0F80
1FFF00
1FFE00
07FC00
01F000
ENDCHAR

STARTCHAR one
ENCODING 49
SWIDTH 565 0
DWIDTH 22 0
BBX 16 22 3 0
BITMAP
07E0
0FE0
3FE0
FFE0
FFE0
F7E0
C7E0
07E0
07E0
07E0
07E0
07E0
07E0
07E0
07E0
07E0
07E0
07E0
FFFF
FFFF
FFFF
FFFF
ENDCHAR

STARTCHAR two
ENCODING 50
SWIDTH 565 0
DWIDTH 22 0
BBX 17 22 2 0
BITMAP
0FF800
3FFE00
7FFF00
7FFF00
FC3F80
F81F80
F81F80
F81F00
003F00
007E00
00FC00
01F800
03F000
07E000
0F8000
1F0000
3E0780
7C0780
FFFF80
FFFF80
FFFF80
FFFF80
ENDCHAR

STARTCHAR three
ENCODING 51
SWIDTH 565 0
DWIDTH 22 0
BBX 17 22 2 0
BITMAP
1FFC00
7FFF00
FFFF00
FFFF80
E03F80
E01F80
001F80
001F00
03FE00
03FC00
03FF00
03FF00
003F80
001F80
001F80
001F80
F01F80
F01F80
FFFF00
7FFF00
7FFE00
1FF800
ENDCHAR

STARTCHAR four
ENCODING 52
SWIDTH 565 0
DWIDTH 22 0
BBX 17 22 3 0
BITMAP
03FE00
03FE00
07FE00
07FE00
0F7E00
0F7E00
1E7E00
1E7E00
3C7E00
3C7E00
787E00
787E00
FFFF80
FFFF80
FFFF80
FFFF80
007E00
007E00
007E00
007E00
007E00
007E00
ENDCHAR

STARTCHAR five
ENCODING 53
SWIDTH 565 0
DWIDTH 22 0
BBX 16 22 3 0
BITMAP
FFFF
FFFF
FFFF
FFFF
F800
F800
F800
F800
FFF8
FFFE
FFFE
FFFF
E03F
003F
003F
003F
F03F
F03F
FFFF
FFFE
7FFE
3FF8
ENDCHAR

STARTCHAR six
ENCODING 54
SWIDTH 565 0
DWIDTH 22 0
BBX 17 22 2 0
BITMAP
00FE00
07FE00
0FFE00
1FFE00
3FC000
3F0000
7E0000
7E0000
7C7800
FDFE00
FFFF00
FFFF00
FE1F80
FC0F80
FC0F80
FC0F80
FC0F80
FE1F80
7FFF00
7FFF00
3FFE00
0FF800
ENDCHAR

STARTCHAR seven
ENCODING 55
SWIDTH 565 0
DWIDTH 22 0
BBX 17 22 2 0
BITMAP
FFFF80
FFFF80
FFFF80
FFFF80
F01F80
F01F80
003F00
003F00
007E00
007E00
00FC00
00FC00
01F800
01F800
03F000
03F000
07E000
07E000
0FC000
0FC000
1F8000
1F8000
ENDCHAR

STARTCHAR eight
ENCODING 56
SWIDTH 565 0
DWIDTH 22 0
BBX 17 22 2 0
BITMAP
0FF800
3FFE00
3FFE00
7FFF00
7C1F00
7C1F00
7C1F00
7C1F00
3FFE00
1FFC00
3FFE00
7FFF00
7C1F00
FC1F80
FC1F80
FC1F80
FC1F80
FC1F80
7FFF00
7FFF00
3FFE00
0FF800
ENDCHAR

STARTCHAR nine
ENCODING 57
SWIDTH 565 0
DWIDTH 22 0
BBX 17 22 2 0
BITMAP
0FF800
3FFE00
7FFF00
7FFF00
FC3F80
F81F80
F81F80
F81F80
F81F80
FC3F80
7FFF80
7FFF80
3FDF80
0F1F00
003F00
003F00
007E00
01FE00
3FFC00
3FF800
3FF000
3F8000
ENDCHAR

STARTCHAR colon
ENCODING 58
SWIDTH 565 0
DWIDTH 22 0
BBX 8 18 7 0
BITMAP
3C
7E
FF
FF
FF
FF
7E
3C
00
00
3C
7E
FF
FF
FF
FF
7E
3C
ENDCHAR

STARTCHAR semicolon
ENCODING 59
SWIDTH 565 0
DWIDTH 22 0
BBX 11 24 5 -6
BITMAP
0780
0FC0
1FE0
1FE0
1FE0
1FE0
0FC0
0780
0000
0000
0000
0000
1FE0
1FC0
1FC0
1F80
3F80
3F00
3F00
3E00
7E00
7C00
7C00
F800
ENDCHAR

STARTCHAR less
ENCODING 60
SWIDTH 565 0
DWIDTH 22 0
BBX 17 18 2 2
BITMAP
000180
000780
001F80
007F80
01FF00
07FC00
1FF000
7FC000
FF0000
FF0000
7FC000
1FF000
07FC00
01FF00
007F80
001F80
000780
000180
ENDCHAR

STARTCHAR equal
ENCODING 61
SWIDTH 565 0
DWIDTH 22 0
BBX 18 12 2 4
BITMAP
FFFFC0
FFFFC0
FFFFC0
FFFFC0
000000
000000
000000
000000
FFFFC0
FFFFC0
FFFFC0
FFFFC0
ENDCHAR

STARTCHAR greater
ENCODING 62
SWIDTH 565 0
DWIDTH 22 0
BBX 17 18 3 2
BITMAP
C00000
F00000
FC0000
FF0000
7FC000
1FF000
07FC00
01FF00
007F80
007F80
01FF00
07FC00
1FF000
7FC000
FF0000
FC0000
F00000
C00000
ENDCHAR

STARTCHAR question
ENCODING 63
SWIDTH 565 0
DWIDTH 22 0
BBX 16 22 3 0
BITMAP
1FF8
7FFE
7FFE
FFFF
FC3F
FC3F
003F
007E
01FC
03F8
07F0
0FE0
0FC0
0FC0
0000
0000
0FC0
1FE0
3FF0
3FF0
1FE0
0FC0
ENDCHAR

STARTCHAR at
ENCODING 64
SWIDTH 565 0
DWIDTH 22 0
BBX 20 28 1 -4
BITMAP
07FC00
1FFF00
3FFF80
7FFF80
7C07C0
F803C0
F803C0
F003C0
F07FC0
F1FFC0
F1FFC0
F3FFC0
F3C3C0
F3C3C0
F3C3C0
F3C3C0
F3FFF0
F1FFF0
F1FEF0
F078F0
F00000
F80000
F80000
7E0000
7FFF00
3FFF00
1FFF00
07FF00
ENDCHAR

STARTCHAR A
ENCODING 65
SWIDTH 565 0
DWIDTH 22 0
BBX 20 22 1 0
BITMAP
03FC00
03FC00
03FC00
03FC00
07FE00
07FE00
079E00
079E00
0F9F00
0F0F00
0F0F00
1F0F80
1FFF80
1FFF80
1FFF80
3FFFC0
3C03C0
3C03C0
FF0FF0
FF0FF0
FF0FF0
FF0FF0
ENDCHAR

STARTCHAR B
ENCODING 66
SWIDTH 565 0
DWIDTH 22 0
BBX 20 22 1 0
BITMAP
FFFE00
FFFF80
FFFF80
FFFFC0
3F0FC0
3F0FC0
3F0FC0
3F0F80
3FFF80
3FFF00
3FFFC0
3FFFE0
3F03E0
3F03F0
3F03F0
3F03F0
3F03F0
3F03F0
FFFFE0
FFFFE0
FFFFC0
FFFF80
ENDCHAR

STARTCHAR C
ENCODING 67
SWIDTH 565 0
DWIDTH 22 0
BBX 20 22 1 0
BITMAP
03F8F0
0FFEF0
3FFFF0
3FFFF0
7E07F0
7E01F0
7C00F0
FC00F0
FC0000
FC0000
FC0000
FC0000
FC0000
FC0000
FC0000
7C0000
7E00F0
7E01F0
3FFFE0
3FFFE0
0FFFC0
03FF00
ENDCHAR

STARTCHAR D
ENCODING 68
SWIDTH 565 0
DWIDTH 22 0
BBX 20 22 1 0
BITMAP
FFFE00
FFFF80
FFFFC0
FFFFE0
3F07E0
3F03F0
3F03F0
3F03F0
3F03F0
3F03F0
3F03F0
3F03F0
3F03F0
3F03F0
3F03F0
3F03F0
3F03F0
3F07E0
FFFFE0
FFFFC0
FFFF80
FFFE00
ENDCHAR

STARTCHAR E
ENCODING 69
SWIDTH 565 0
DWIDTH 22 0
BBX 20 22 1 0
BITMAP
FFFFF0
FFFFF0
FFFFF0
FFFFF0
3F00F0
3F00F0
3F00F0
3F1EF0
3F1E00
3FFE00
3FFE00
3FFE00
3FFE00
3F1E00
3F1EF0
3F00F0
3F00F0
3F00F0
FFFFF0
FFFFF0
FFFFF0
FFFFF0
ENDCHAR

STARTCHAR F
ENCODING 70
SWIDTH 565 0
DWIDTH 22 0
BBX 20 22 1 0
BITMAP
FFFFF0
FFFFF0
FFFFF0
FFFFF0
3F00F0
3F00F0
3F1EF0
3F1EF0
3F1E00
3FFE00
3FFE00
3FFE00
3FFE00
3F1E00
3F1E00
3F0000
3F0000
3F0000
FFC000
FFC000
FFC000
FFC000
ENDCHAR

STARTCHAR G
ENCODING 71
SWIDTH 565 0
DWIDTH 22 0
BBX 20 22 1 0
BITMAP
03F8F0
0FFEF0
3FFFF0
3FFFF0
7E07F0
7E01F0
7C00F0
FC00F0
FC0000
FC0000
FC3FF0
FC3FF0
FC3FF0
FC3FF0
FC03F0
7C03F0
7E03F0
7E03F0
3FFFF0
3FFFE0
0FFFC0
03FE00
ENDCHAR

STARTCHAR H
ENCODING 72
SWIDTH 565 0
DWIDTH 22 0
BBX 20 22 1 0
BITMAP
FF0FF0
FF0FF0
FF0FF0
FF0FF0
3F0FC0
3F0FC0
3F0FC0
3F0FC0
3FFFC0
3FFFC0
3FFFC0
3FFFC0
3F0FC0
3F0FC0
3F0FC0
3F0FC0
3F0FC0
3F0FC0
FF0FF0
FF0FF0
FF0FF0
FF0FF0
ENDCHAR

STARTCHAR I
ENCODING 73
SWIDTH 565 0
DWIDTH 22 0
BBX 18 22 2 0
BITMAP
FFFFC0
FFFFC0
FFFFC0
FFFFC0
03F000
03F000
03F000
03F000
03F000
03F000
03F000
03F000
03F000
03F000
03F000
03F000
03F000
03F000
FFFFC0
FFFFC0
FFFFC0
FFFFC0
ENDCHAR

STARTCHAR J
ENCODING 74
SWIDTH 565 0
DWIDTH 22 0
BBX 20 22 1 0
BITMAP
03FFF0
03FFF0
03FFF0
03FFF0
003F00
003F00
003F00
003F00
003F00
003F00
003F00
003F00
F03F00
F03F00
F03F00
F03F00
F83F00
FC7F00
FFFF00
7FFE00
3FFE00
0FF800
ENDCHAR

STARTCHAR K
ENCODING 75
SWIDTH 565 0
DWIDTH 22 0
BBX 20 22 1 0
BITMAP
FF07F0
FF07F0
FF0FF0
FF0FF0
3F1F00
3F1E00
3F3E00
3F3C00
3FFC00
3FF800
3FF800
3FF800
3FFC00
3FFC00
3F3E00
3F3E00
3F1F00
3F1F00
FF0FF0
FF0FF0
FF07F0
FF07F0
ENDCHAR

STARTCHAR L
ENCODING 76
SWIDTH 565 0
DWIDTH 22 0
BBX 18 22 2 0
BITMAP
FFC000
FFC000
FFC000
FFC000
3F0000
3F0000
3F0000
3F0000
3F0000
3F0000
3F0000
3F0000
3F03C0
3F03C0
3F03C0
3F03C0
3F03C0
3F03C0
FFFFC0
FFFFC0
FFFFC0
FFFFC0
ENDCHAR

STARTCHAR M
ENCODING 77
SWIDTH 565 0
DWIDTH 22 0
BBX 20 22 1 0
BITMAP
FC03F0
FC03F0
FE07F0
FE07F0
3E07C0
3F0FC0
3F0FC0
3F0FC0
3F9FC0
3F9FC0
3DFBC0
3DFBC0
3EF7C0
3EF7C0
3E67C0
3E67C0
3E07C0
3E07C0
FE07F0
FE07F0
FE07F0
FE07F0
ENDCHAR

STARTCHAR N
ENCODING 78
SWIDTH 565 0
DWIDTH 22 0
BBX 20 22 1 0
BITMAP
FF0FF0
FF0FF0
FF0FF0
FF0FF0
3F8FC0
3F8FC0
3FCFC0
3FCFC0
3FEFC0
3FEFC0
3F7FC0
3F7FC0
3F3FC0
3F3FC0
3F1FC0
3F1FC0
3F0FC0
3F0FC0
FF0FC0
FF0FC0
FF0FC0
FF0FC0
ENDCHAR

STARTCHAR O
ENCODING 79
SWIDTH 565 0
DWIDTH 22 0
BBX 20 22 1 0
BITMAP
03FC00
0FFF00
3FFFC0
3FFFC0
7E07E0
7E07E0
7C03E0
FC03F0
FC03F0
FC03F0
FC03F0
FC03F0
FC03F0
FC03F0
FC03F0
7C03E0
7E07E0
7E07E0
3FFFC0
3FFFC0
0FFF00
03FC00
ENDCHAR

STARTCHAR P
ENCODING 80
SWIDTH 565 0
DWIDTH 22 0
BBX 18 22 2 0
BITMAP
FFFC00
FFFF00
FFFF80
FFFF80
3F0FC0
3F0FC0
3F0FC0
3F0FC0
3F0FC0
3F0FC0
3FFF80
3FFF80
3FFF00
3FFC00
3F0000
3F0000
3F0000
3F0000
FFC000
FFC000
FFC000
FFC000
ENDCHAR

STARTCHAR Q
ENCODING 81
SWIDTH 565 0
DWIDTH 22 0
BBX 20 28 1 -6
BITMAP
03FC00
0FFF00
3FFFC0
3FFFC0
7E07E0
7E07E0
7C03E0
FC03F0
FC03F0
FC03F0
FC03F0
FC03F0
FC03F0
FC03F0
FC03F0
7C03E0
7E07E0
7E07E0
3FFFC0
3FFFC0
0FFF00
03FC00
03C000
038000
07F870
07FFF0
0F3FE0
0E0FC0
ENDCHAR

STARTCHAR R
ENCODING 82
SWIDTH 565 0
DWIDTH 22 0
BBX 20 22 1 0
BITMAP
FFFF00
FFFF80
FFFF80
FFFFC0
3F0FC0
3F0FC0
3F0FC0
3F0FC0
3F0F80
3FFF80
3FFF00
3FFE00
3FFE00
3F3F00
3F1F00
3F1F80
3F0F80
3F0FC0
FF0FF0
FF07F0
FF07F0
FF07F0
ENDCHAR

STARTCHAR S
ENCODING 83
SWIDTH 565 0
DWIDTH 22 0
BBX 17 22 2 0
BITMAP
0FE780
3FF780
7FFF80
7FFF80
FC0F80
FC0780
FC0780
FC0780
7E0000
7FE000
3FFC00
0FFF00
01FF00
003F80
F01F80
F01F80
F81F80
FC1F80
FFFF00
FFFF00
F7FE00
F1F800
ENDCHAR

STARTCHAR T
ENCODING 84
SWIDTH 565 0
DWIDTH 22 0
BBX 20 22 1 0
BITMAP
FFFFF0
FFFFF0
FFFFF0
FFFFF0
F1F8F0
F1F8F0
F1F8F0
F1F8F0
F1F8F0
F1F8F0
01F800
01F800
01F800
01F800
01F800
01F800
01F800
01F800
07FE00
07FE00
07FE00
07FE00
ENDCHAR

STARTCHAR U
ENCODING 85
SWIDTH 565 0
DWIDTH 22 0
BBX 20 22 1 0
BITMAP
FF0FF0
FF0FF0
FF0FF0
FF0FF0
3F0FC0
3F0FC0
3F0FC0
3F0FC0
3F0FC0
3F0FC0
3F0FC0
3F0FC0
3F0FC0
3F0FC0
3F0FC0
3F0FC0
3F0FC0
3F0FC0
1FFF80
1FFF80
0FFF00
07FE00
ENDCHAR

STARTCHAR V
ENCODING 86
SWIDTH 565 0
DWIDTH 22 0
BBX 20 22 1 0
BITMAP
FC03F0
FC03F0
FC03F0
FE07F0
3E07C0
3E07C0
3E07C0
3F0FC0
1F0F80
1F0F80
1F0F80
0F9F00
0F9F00
0F9F00
07FE00
07FE00
07FE00
03FC00
03FC00
03FC00
01F800
01F800
ENDCHAR

STARTCHAR W
ENCODING 87
SWIDTH 565 0
DWIDTH 22 0
BBX 20 22 1 0
BITMAP
FF0FF0
FF0FF0
FF0FF0
FF0FF0
3C03C0
3C03C0
3C63C0
3C63C0
3C63C0
3CF3C0
3CF3C0
3CF3C0
3DFBC0
3DFBC0
3F9FC0
1F9F80
1F9F80
1F9F80
1F0F80
0F0F00
0F0F00
0F0F00
ENDCHAR

STARTCHAR X
ENCODING 88
SWIDTH 565 0
DWIDTH 22 0
BBX 20 22 1 0
BITMAP
FE07F0
FE07F0
FE07F0
FF0FF0
1F0F80
0F9F00
0F9F00
079E00
07FE00
03FC00
03FC00
03FC00
07FE00
07FE00
0F9F00
0F9F00
1F0F80
1F0F80
FE07F0
FE07F0
FC03F0
FC03F0
ENDCHAR

STARTCHAR Y
ENCODING 89
SWIDTH 565 0
DWIDTH 22 0
BBX 18 22 2 0
BITMAP
FC0FC0
FC0FC0
FC0FC0
FE1FC0
3E1F00
3E1F00
1F3E00
1F3E00
0FFC00
0FFC00
07F800
07F800
03F000
03F000
03F000
03F000
03F000
03F000
0FFC00
0FFC00
0FFC00
0FFC00
ENDCHAR

STARTCHAR Z
ENCODING 90
SWIDTH 565 0
DWIDTH 22 0
BBX 16 22 3 0
BITMAP
FFFE
FFFE
FFFE
FFFC
F0FC
F0F8
F1F8
F1F0
03F0
03E0
07E0
07C0
0FC0
0F80
1F8F
1F0F
3F0F
3E0F
7FFF
7FFF
FFFF
FFFF
ENDCHAR

STARTCHAR bracketleft
ENCODING 91
SWIDTH 565 0
DWIDTH 22 0
BBX 10 32 6 -4
BITMAP
FFC0
FFC0
FFC0
FFC0
FC00
FC00
FC00
FC00
FC00
FC00
FC00
FC00
FC00
FC00
FC00
FC00
FC00
FC00
FC00
FC00
FC00
FC00
FC00
FC00
FC00
FC00
FC00
FC00
FFC0
FFC0
FFC0
FFC0
ENDCHAR

STARTCHAR backslash
ENCODING 92
SWIDTH 565 0
DWIDTH 22 0
BBX 17 28 2 -3
BITMAP
F80000
F80000
FC0000
7C0000
7C0000
3E0000
3E0000
1F0000
1F0000
0F8000
0F8000
07C000
07C000
03E000
03E000
01F000
01F000
00F800
00F800
007C00
007C00
003E00
003E00
001F00
001F00
001F80
000F80
000F80
ENDCHAR

STARTCHAR bracketright
ENCODING 93
SWIDTH 565 0
DWIDTH 22 0
BBX 10 32 6 -4
BITMAP
FFC0
FFC0
FFC0
FFC0
0FC0
0FC0
0FC0
0FC0
0FC0
0FC0
0FC0
0FC0
0FC0
0FC0
0FC0
0FC0
0FC0
0FC0
0FC0
0FC0
0FC0
0FC0
0FC0
0FC0
0FC0
0FC0
0FC0
0FC0
FFC0
FFC0
FFC0
FFC0
ENDCHAR

STARTCHAR asciicircum
ENCODING 94
SWIDTH 565 0
DWIDTH 22 0
BBX 17 8 2 10
BITMAP
01C000
03E000
07F000
0FF800
1F7C00
3E3E00
7C1F00
F80F80
ENDCHAR

STARTCHAR ldblank
ENCODING 95
SWIDTH 565 0
DWIDTH 22 0
BBX 1 1 0 0
BITMAP
00
ENDCHAR

STARTCHAR diamond
ENCODING 96
SWIDTH 565 0
DWIDTH 22 0
BBX 18 22 2 0
BITMAP
00C000
00C000
03F000
03F000
07F800
0FFC00
0FFC00
1FFE00
3FFF00
3FFF00
FFFFC0
FFFFC0
3FFF00
3FFF00
1FFE00
0FFC00
0FFC00
07F800
03F000
03F000
00C000
00C000
ENDCHAR

STARTCHAR checkerboard
ENCODING 97
SWIDTH 565 0
DWIDTH 22 0
BBX 22 40 0 -10
BITMAP
AAAAA8
555554
AAAAA8
555554
AAAAA8
555554
AAAAA8
555554
AAAAA8
555554
AAAAA8
555554
AAAAA8
555554
AAAAA8
555554
AAAAA8
555554
AAAAA8
555554
AAAAA8
555554
AAAAA8
555554
AAAAA8
555554
AAAAA8
555554
AAAAA8
555554
AAAAA8
555554
AAAAA8
555554
AAAAA8
555554
AAAAA8
555554
AAAAA8
555554
ENDCHAR

STARTCHAR HT
ENCODING 98
SWIDTH 565 0
DWIDTH 22 0
BBX 20 26 1 -2
BITMAP
F0F000
F0F000
F0F000
F0F000
FFF000
FFF000
FFF000
FFF000
F0F000
F0F000
F0F000
F0F000
000000
000000
001FF0
001FF0
001FF0
001FF0
000780
000780
000780
000780
000780
000780
000780
000780
ENDCHAR

STARTCHAR FF
ENCODING 99
SWIDTH 565 0
DWIDTH 22 0
BBX 20 26 1 -2
BITMAP
FFC000
FFC000
FFC000
FFC000
F00000
F00000
FF0000
FF0000
FF0000
FF0000
F00000
F00000
F00000
003FF0
003FF0
003FF0
003FF0
003C00
003C00
003FC0
003FC0
003FC0
003FC0
003C00
003C00
003C00
ENDCHAR

STARTCHAR CR
ENCODING 100
SWIDTH 565 0
DWIDTH 22 0
BBX 20 26 1 -2
BITMAP
1F0000
7F8000
7F8000
FFC000
F3C000
F00000
F00000
F3C000
FFC000
7F8000
7F8000
1F0000
000000
000000
003FC0
003FE0
003FF0
003CF0
003CF0
003CF0
003FE0
003FC0
003FE0
003CF0
003CF0
003CF0
ENDCHAR

STARTCHAR LF
ENCODING 101
SWIDTH 565 0
DWIDTH 22 0
BBX 20 26 1 -2
BITMAP
F00000
F00000
F00000
F00000
F00000
F00000
F00000
F00000
FFC000
FFC000
FFC000
FFC000
000000
003FF0
003FF0
003FF0
003FF0
003C00
003C00
003FC0
003FC0
003FC0
003FC0
003C00
003C00
003C00
ENDCHAR

STARTCHAR degree
ENCODING 102
SWIDTH 565 0
DWIDTH 22 0
BBX 12 12 5 12
BITMAP
1F80
7FE0
7FE0
FFF0
F0F0
F0F0
F0F0
F0F0
FFF0
7FE0
7FE0
1F80
ENDCHAR

STARTCHAR plusminus
ENCODING 103
SWIDTH 565 0
DWIDTH 22 0
BBX 18 22 2 0
BITMAP
03F000
03F000
03F000
03F000
03F000
03F000
FFFFC0
FFFFC0
FFFFC0
FFFFC0
03F000
03F000
03F000
03F000
03F000
03F000
000000
000000
FFFFC0
FFFFC0
FFFFC0
FFFFC0
ENDCHAR

STARTCHAR NL
ENCODING 104
SWIDTH 565 0
DWIDTH 22 0
BBX 20 26 1 -2
BITMAP
F0F000
F0F000
F8F000
FCF000
FEF000
FFF000
F7F000
F3F000
F1F000
F0F000
F0F000
F0F000
000000
000000
000F00
000F00
000F00
000F00
000F00
000F00
000F00
000F00
000FF0
000FF0
000FF0
000FF0
ENDCHAR

STARTCHAR V00T
ENCODING 105
SWIDTH 565 0
DWIDTH 22 0
BBX 20 26 1 -2
BITMAP
F0F000
F0F000
F0F000
F0F000
F0F000
F9F000
79E000
7FE000
3FC000
1F8000
1F8000
0F0000
000000
000000
001FF0
001FF0
001FF0
001FF0
0007C0
0007C0
0007C0
0007C0
0007C0
0007C0
0007C0
0007C0
ENDCHAR

STARTCHAR ldcornsqlr
ENCODING 106
SWIDTH 565 0
DWIDTH 22 0
BBX 14 22 0 8
BITMAP
00FC
00FC
00FC
00FC
00FC
00FC
00FC
00FC
00FC
00FC
00FC
00FC
00FC
00FC
00FC
00FC
00FC
00FC
FFFC
FFFC
FFFC
FFFC
ENDCHAR

STARTCHAR ldcornsqur
ENCODING 107
SWIDTH 565 0
DWIDTH 22 0
BBX 14 22 0 -10
BITMAP
FFFC
FFFC
FFFC
FFFC
00FC
00FC
00FC
00FC
00FC
00FC
00FC
00FC
00FC
00FC
00FC
00FC
00FC
00FC
00FC
00FC
00FC
00FC
ENDCHAR

STARTCHAR ldcornsqul
ENCODING 108
SWIDTH 565 0
DWIDTH 22 0
BBX 14 22 8 -10
BITMAP
FFFC
FFFC
FFFC
FFFC
FC00
FC00
FC00
FC00
FC00
FC00
FC00
FC00
FC00
FC00
FC00
FC00
FC00
FC00
FC00
FC00
FC00
FC00
ENDCHAR

STARTCHAR ldcornsqll
ENCODING 109
SWIDTH 565 0
DWIDTH 22 0
BBX 14 22 8 8
BITMAP
FC00
FC00
FC00
FC00
FC00
FC00
FC00
FC00
FC00
FC00
FC00
FC00
FC00
FC00
FC00
FC00
FC00
FC00
FFFC
FFFC
FFFC
FFFC
ENDCHAR

STARTCHAR ldcross
ENCODING 110
SWIDTH 565 0
DWIDTH 22 0
BBX 22 40 0 -10
BITMAP
00FC00
00FC00
00FC00
00FC00
00FC00
00FC00
00FC00
00FC00
00FC00
00FC00
00FC00
00FC00
00FC00
00FC00
00FC00
00FC00
00FC00
00FC00
FFFFFC
FFFFFC
FFFFFC
FFFFFC
00FC00
00FC00
00FC00
00FC00
00FC00
00FC00
00FC00
00FC00
00FC00
00FC00
00FC00
00FC00
00FC00
00FC00
00FC00
00FC00
00FC00
00FC00
ENDCHAR

STARTCHAR ldscan1
ENCODING 111
SWIDTH 565 0
DWIDTH 22 0
BBX 22 4 0 23
BITMAP
FFFFFC
FFFFFC
FFFFFC
FFFFFC
ENDCHAR

STARTCHAR ldscan3
ENCODING 112
SWIDTH 565 0
DWIDTH 22 0
BBX 22 4 0 14
BITMAP
FFFFFC
FFFFFC
FFFFFC
FFFFFC
ENDCHAR

STARTCHAR ldhorizontal
ENCODING 113
SWIDTH 565 0
DWIDTH 22 0
BBX 22 4 0 8
BITMAP
FFFFFC
FFFFFC
FFFFFC
FFFFFC
ENDCHAR

STARTCHAR ldscan7
ENCODING 114
SWIDTH 565 0
DWIDTH 22 0
BBX 22 4 0 -2
BITMAP
FFFFFC
FFFFFC
FFFFFC
FFFFFC
ENDCHAR

STARTCHAR ldscan9
ENCODING 115
SWIDTH 565 0
DWIDTH 22 0
BBX 22 4 0 -10
BITMAP
FFFFFC
FFFFFC
FFFFFC
FFFFFC
ENDCHAR

STARTCHAR ldteelft
ENCODING 116
SWIDTH 565 0
DWIDTH 22 0
BBX 14 40 8 -10
BITMAP
FC00
FC00
FC00
FC00
FC00
FC00
FC00
FC00
FC00
FC00
FC00
FC00
FC00
FC00
FC00
FC00
FC00
FC00
FFFC
FFFC
FFFC
FFFC
FC00
FC00
FC00
FC00
FC00
FC00
FC00
FC00
FC00
FC00
FC00
FC00
FC00
FC00
FC00
FC00
FC00
FC00
ENDCHAR

STARTCHAR ldteert
ENCODING 117
SWIDTH 565 0
DWIDTH 22 0
BBX 14 40 0 -10
BITMAP
00FC
00FC
00FC
00FC
00FC
00FC
00FC
00FC
00FC
00FC
00FC
00FC
00FC
00FC
00FC
00FC
00FC
00FC
FFFC
FFFC
FFFC
FFFC
00FC
00FC
00FC
00FC
00FC
00FC
00FC
00FC
00FC
00FC
00FC
00FC
00FC
00FC
00FC
00FC
00FC
00FC
ENDCHAR

STARTCHAR ldteebt
ENCODING 118
SWIDTH 565 0
DWIDTH 22 0
BBX 22 22 0 8
BITMAP
00FC00
00FC00
00FC00
00FC00
00FC00
00FC00
00FC00
00FC00
00FC00
00FC00
00FC00
00FC00
00FC00
00FC00
00FC00
00FC00
00FC00
00FC00
FFFFFC
FFFFFC
FFFFFC
FFFFFC
ENDCHAR

STARTCHAR ldteetp
ENCODING 119
SWIDTH 565 0
DWIDTH 22 0
BBX 22 22 0 -10
BITMAP
FFFFFC
FFFFFC
FFFFFC
FFFFFC
00FC00
00FC00
00FC00
00FC00
00FC00
00FC00
00FC00
00FC00
00FC00
00FC00
00FC00
00FC00
00FC00
00FC00
00FC00
00FC00
00FC00
00FC00
ENDCHAR

STARTCHAR ldvertical
ENCODING 120
SWIDTH 565 0
DWIDTH 22 0
BBX 6 40 8 -10
BITMAP
FC
FC
FC
FC
FC
FC
FC
FC
FC
FC
FC
FC
FC
FC
FC
FC
FC
FC
FC
FC
FC
FC
FC
FC
FC
FC
FC
FC
FC
FC
FC
FC
FC
FC
FC
FC
FC
FC
FC
FC
ENDCHAR

STARTCHAR lessequal
ENCODING 121
SWIDTH 565 0
DWIDTH 22 0
BBX 20 21 1 0
BITMAP
000010
0000F0
000FF0
007FF0
03FFF0
1FFF00
FFF000
FF0000
FF0000
FFF000
1FFF00
03FFF0
007FF0
000FF0
0000F0
000010
000000
FFFFF0
FFFFF0
FFFFF0
FFFFF0
ENDCHAR

STARTCHAR greaterequal
ENCODING 122
SWIDTH 565 0
DWIDTH 22 0
BBX 20 21 1 0
BITMAP
800000
F00000
FF0000
FFE000
FFFC00
0FFF80
00FFF0
000FF0
000FF0
00FFF0
0FFF80
FFFC00
FFE000
FF0000
F00000
800000
000000
FFFFF0
FFFFF0
FFFFF0
FFFFF0
ENDCHAR

STARTCHAR pi
ENCODING 123
SWIDTH 565 0
DWIDTH 22 0
BBX 21 18 1 0
BITMAP
FFFFF8
FFFFF8
FFFFF8
FFFFF8
3E07C0
3E0780
3E0780
3E0780
7C0F80
7C0F80
7C0F00
7C0F00
7C0F00
7C1F00
F81FC0
F81FC0
F81FC0
F81FC0
ENDCHAR

STARTCHAR notequal
ENCODING 124
SWIDTH 565 0
DWIDTH 22 0
BBX 18 20 2 0
BITMAP
000F00
000F00
001E00
001E00
FFFFC0
FFFFC0
FFFFC0
FFFFC0
00F000
01E000
01E000
03C000
FFFFC0
FFFFC0
FFFFC0
FFFFC0
1E0000
1E0000
3C0000
3C0000
ENDCHAR

STARTCHAR sterling
ENCODING 125
SWIDTH 565 0
DWIDTH 22 0
BBX 18 22 3 0
BITMAP
07F800
1FFE00
1FFE00
3FFF00
3F0F00
3F0F00
3F0000
1F0000
FFFC00
FFFC00
FFFC00
FFFC00
0F8000
0F8000
0F8000
0F8000
0FC1C0
1FF1C0
3FFFC0
FFFFC0
FCFF80
F01F00
ENDCHAR

STARTCHAR periodcentered
ENCODING 126
SWIDTH 565 0
DWIDTH 22 0
BBX 8 8 7 6
BITMAP
3C
7E
FF
FF
FF
FF
7E
3C
ENDCHAR

STARTCHAR Error
ENCODING 159
SWIDTH 565 0
DWIDTH 22 0
BBX 20 37 1 -8
BITMAP
03FE00
0FFF80
3FFFC0
3FFFE0
7FFFE0
7FFFF0
FF9FF0
FF0FF0
FF0FF0
FF0000
FF8000
7FC000
7FE000
3FF000
1FF800
0FF800
07FC00
03FC00
03FE00
01FE00
01FE00
01FE00
01FE00
000000
000000
000000
000000
00FC00
01FE00
03FF00
03FF00
03FF00
03FF00
03FF00
03FF00
01FE00
00FC00
ENDCHAR

STARTCHAR ldradicalbt
ENCODING 161
SWIDTH 565 0
DWIDTH 22 0
BBX 14 26 0 4
BITMAP
00FC
00FC
00FC
00FC
00FC
00FC
00FC
00FC
38FC
78FC
FCFC
FCFC
FEFC
FEFC
FFFC
FFFC
EFFC
CFFC
07FC
07FC
03FC
03FC
01FC
01FC
00FC
00FC
ENDCHAR

STARTCHAR ldradicaltp
ENCODING 162
SWIDTH 565 0
DWIDTH 22 0
BBX 14 22 8 -10
BITMAP
FFFC
FFFC
FFFC
FFFC
FC00
FC00
FC00
FC00
FC00
FC00
FC00
FC00
FC00
FC00
FC00
FC00
FC00
FC00
FC00
FC00
FC00
FC00
ENDCHAR

STARTCHAR ldhorizontal
ENCODING 163
SWIDTH 565 0
DWIDTH 22 0
BBX 22 4 0 8
BITMAP
FFFFFC
FFFFFC
FFFFFC
FFFFFC
ENDCHAR

STARTCHAR ldintegraltp
ENCODING 164
SWIDTH 565 0
DWIDTH 22 0
BBX 13 38 8 -10
BITMAP
0FC0
3FF0
7FF8
7FF8
FE78
FC00
FC00
FC00
FC00
FC00
FC00
FC00
FC00
FC00
FC00
FC00
FC00
FC00
FC00
FC00
FC00
FC00
FC00
FC00
FC00
FC00
FC00
FC00
FC00
FC00
FC00
FC00
FC00
FC00
FC00
FC00
FC00
FC00
ENDCHAR

STARTCHAR ldintegralbt
ENCODING 165
SWIDTH 565 0
DWIDTH 22 0
BBX 13 38 1 -8
BITMAP
01F8
01F8
01F8
01F8
01F8
01F8
01F8
01F8
01F8
01F8
01F8
01F8
01F8
01F8
01F8
01F8
01F8
01F8
01F8
01F8
01F8
01F8
01F8
01F8
01F8
01F8
01F8
01F8
01F8
01F8
01F8
01F8
01F8
F3F8
FFF0
FFF0
7FE0
1F80
ENDCHAR

STARTCHAR ldvertical
ENCODING 166
SWIDTH 565 0
DWIDTH 22 0
BBX 6 40 8 -10
BITMAP
FC
FC
FC
FC
FC
FC
FC
FC
FC
FC
FC
FC
FC
FC
FC
FC
FC
FC
FC
FC
FC
FC
FC
FC
FC
FC
FC
FC
FC
FC
FC
FC
FC
FC
FC
FC
FC
FC
FC
FC
ENDCHAR

STARTCHAR ldbracketlfttp
ENCODING 167
SWIDTH 565 0
DWIDTH 22 0
BBX 10 38 8 -10
BITMAP
FFC0
FFC0
FFC0
FFC0
FC00
FC00
FC00
FC00
FC00
FC00
FC00
FC00
FC00
FC00
FC00
FC00
FC00
FC00
FC00
FC00
FC00
FC00
FC00
FC00
FC00
FC00
FC00
FC00
FC00
FC00
FC00
FC00
FC00
FC00
FC00
FC00
FC00
FC00
ENDCHAR

STARTCHAR ldbracketlftbt
ENCODING 168
SWIDTH 565 0
DWIDTH 22 0
BBX 10 38 8 -8
BITMAP
FC00
FC00
FC00
FC00
FC00
FC00
FC00
FC00
FC00
FC00
FC00
FC00
FC00
FC00
FC00
FC00
FC00
FC00
FC00
FC00
FC00
FC00
FC00
FC00
FC00
FC00
FC00
FC00
FC00
FC00
FC00
FC00
FC00
FC00
FFC0
FFC0
FFC0
FFC0
ENDCHAR

STARTCHAR ldbracketrttp
ENCODING 169
SWIDTH 565 0
DWIDTH 22 0
BBX 10 38 4 -10
BITMAP
FFC0
FFC0
FFC0
FFC0
0FC0
0FC0
0FC0
0FC0
0FC0
0FC0
0FC0
0FC0
0FC0
0FC0
0FC0
0FC0
0FC0
0FC0
0FC0
0FC0
0FC0
0FC0
0FC0
0FC0
0FC0
0FC0
0FC0
0FC0
0FC0
0FC0
0FC0
0FC0
0FC0
0FC0
0FC0
0FC0
0FC0
0FC0
ENDCHAR

STARTCHAR ldbracketrtbt
ENCODING 170
SWIDTH 565 0
DWIDTH 22 0
BBX 10 38 4 -8
BITMAP
0FC0
0FC0
0FC0
0FC0
0FC0
0FC0
0FC0
0FC0
0FC0
0FC0
0FC0
0FC0
0FC0
0FC0
0FC0
0FC0
0FC0
0FC0
0FC0
0FC0
0FC0
0FC0
0FC0
0FC0
0FC0
0FC0
0FC0
0FC0
0FC0
0FC0
0FC0
0FC0
0FC0
0FC0
FFC0
FFC0
FFC0
FFC0
ENDCHAR

STARTCHAR ldbracelfttp
ENCODING 171
SWIDTH 565 0
DWIDTH 22 0
BBX 12 36 8 -10
BITMAP
0FF0
3FF0
7FF0
7FF0
FE00
FC00
FC00
FC00
FC00
FC00
FC00
FC00
FC00
FC00
FC00
FC00
FC00
FC00
FC00
FC00
FC00
FC00
FC00
FC00
FC00
FC00
FC00
FC00
FC00
FC00
FC00
FC00
FC00
FC00
FC00
FC00
ENDCHAR

STARTCHAR ldbracelftbt
ENCODING 172
SWIDTH 565 0
DWIDTH 22 0
BBX 12 38 8 -8
BITMAP
FC00
FC00
FC00
FC00
FC00
FC00
FC00
FC00
FC00
FC00
FC00
FC00
FC00
FC00
FC00
FC00
FC00
FC00
FC00
FC00
FC00
FC00
FC00
FC00
FC00
FC00
FC00
FC00
FC00
FC00
FC00
FC00
FC00
FE00
7FF0
7FF0
3FF0
0FF0
ENDCHAR

STARTCHAR ldbracerttp
ENCODING 173
SWIDTH 565 0
DWIDTH 22 0
BBX 12 36 2 -10
BITMAP
FF00
FFC0
FFE0
FFE0
07F0
03F0
03F0
03F0
03F0
03F0
03F0
03F0
03F0
03F0
03F0
03F0
03F0
03F0
03F0
03F0
03F0
03F0
03F0
03F0
03F0
03F0
03F0
03F0
03F0
03F0
03F0
03F0
03F0
03F0
03F0
03F0
ENDCHAR

STARTCHAR ldbracertbt
ENCODING 174
SWIDTH 565 0
DWIDTH 22 0
BBX 12 38 2 -8
BITMAP
03F0
03F0
03F0
03F0
03F0
03F0
03F0
03F0
03F0
03F0
03F0
03F0
03F0
03F0
03F0
03F0
03F0
03F0
03F0
03F0
03F0
03F0
03F0
03F0
03F0
03F0
03F0
03F0
03F0
03F0
03F0
03F0
03F0
07F0
FFE0
FFE0
FFC0
FF00
ENDCHAR

STARTCHAR ldbracelftmid
ENCODING 175
SWIDTH 565 0
DWIDTH 22 0
BBX 10 40 4 -10
BITMAP
0FC0
0FC0
0FC0
0FC0
0FC0
0FC0
0FC0
0FC0
0FC0
0FC0
0FC0
0FC0
0FC0
0FC0
0FC0
0FC0
0F80
1F80
3F00
FC00
FC00
3F00
1F80
0F80
0FC0
0FC0
0FC0
0FC0
0FC0
0FC0
0FC0
0FC0
0FC0
0FC0
0FC0
0FC0
0FC0
0FC0
0FC0
0FC0
ENDCHAR

STARTCHAR ldbracertmid
ENCODING 176
SWIDTH 565 0
DWIDTH 22 0
BBX 10 40 8 -10
BITMAP
FC00
FC00
FC00
FC00
FC00
FC00
FC00
FC00
FC00
FC00
FC00
FC00
FC00
FC00
FC00
FC00
7C00
7E00
3F00
0FC0
0FC0
3F00
7E00
7C00
FC00
FC00
FC00
FC00
FC00
FC00
FC00
FC00
FC00
FC00
FC00
FC00
FC00
FC00
FC00
FC00
ENDCHAR

STARTCHAR ldsigmalfttp
ENCODING 177
SWIDTH 565 0
DWIDTH 22 0
BBX 14 22 8 -10
BITMAP
FFFC
FFFC
FFFC
FFFC
F800
7C00
7C00
3E00
1F00
1F00
0F80
0780
07C0
03E0
01E0
01F0
00F8
0078
007C
003C
003C
001C
ENDCHAR

STARTCHAR ldsigmalftbt
ENCODING 178
SWIDTH 565 0
DWIDTH 22 0
BBX 14 22 8 8
BITMAP
001C
003C
003C
007C
0078
00F8
01F0
01E0
03E0
07C0
0780
0F80
1F00
1F00
3E00
7C00
7C00
F800
FFFC
FFFC
FFFC
FFFC
ENDCHAR

STARTCHAR ldbackslash
ENCODING 179
SWIDTH 565 0
DWIDTH 22 0
BBX 22 40 0 -10
BITMAP
E00000
F00000
F00000
F80000
780000
7C0000
3C0000
3E0000
1E0000
1F0000
0F0000
0F8000
0F8000
07C000
07C000
03E000
03E000
01F000
01F000
00F800
00F800
007C00
007C00
003E00
003E00
001F00
001F00
000F80
000F80
0007C0
0007E0
0003E0
0001F0
0001F0
0000F8
0000F8
00007C
00007C
00003C
00001C
ENDCHAR

STARTCHAR ldslash
ENCODING 180
SWIDTH 565 0
DWIDTH 22 0
BBX 22 40 0 -10
BITMAP
00001C
00003C
00003C
00007C
000078
0000F8
0000F0
0001F0
0001E0
0003E0
0003C0
0007C0
0007C0
000F80
000F80
001F00
001F00
003E00
003E00
007C00
007C00
00F800
00F800
01F000
01F000
03E000
03E000
07C000
07C000
0F8000
1F8000
1F0000
3E0000
3E0000
7C0000
7C0000
F80000
F80000
F00000
E00000
ENDCHAR

STARTCHAR ldsigmarttp
ENCODING 181
SWIDTH 565 0
DWIDTH 22 0
BBX 22 12 0 0
BITMAP
FFFFFC
FFFFFC
FFFFFC
FFFFFC
0000FC
0000FC
0000FC
0000FC
0000FC
0000FC
0000FC
0000FC
ENDCHAR

STARTCHAR ldsigmartbt
ENCODING 182
SWIDTH 565 0
DWIDTH 22 0
BBX 22 12 0 8
BITMAP
0000FC
0000FC
0000FC
0000FC
0000FC
0000FC
0000FC
0000FC
FFFFFC
FFFFFC
FFFFFC
FFFFFC
ENDCHAR

STARTCHAR ldsigmamid
ENCODING 183
SWIDTH 565 0
DWIDTH 22 0
BBX 13 40 0 -10
BITMAP
E000
E000
F000
F000
F800
7800
7C00
3C00
3E00
3E00
1F00
0F00
0F80
0780
07C0
07E0
03E0
01F0
01F0
00F8
00F8
00F8
00F0
01F0
01E0
03E0
03C0
07C0
0780
0F80
1F00
1F00
3E00
3C00
7C00
7800
F800
F000
F000
E000
ENDCHAR

STARTCHAR lessequal
ENCODING 188
SWIDTH 565 0
DWIDTH 22 0
BBX 20 21 1 0
BITMAP
000010
0000F0
000FF0
007FF0
03FFF0
1FFF00
FFF000
FF0000
FF0000
FFF000
1FFF00
03FFF0
007FF0
000FF0
0000F0
000010
000000
FFFFF0
FFFFF0
FFFFF0
FFFFF0
ENDCHAR

STARTCHAR notequal
ENCODING 189
SWIDTH 565 0
DWIDTH 22 0
BBX 18 20 2 0
BITMAP
000F00
000F00
001E00
001E00
FFFFC0
FFFFC0
FFFFC0
FFFFC0
00F000
01E000
01E000
03C000
FFFFC0
FFFFC0
FFFFC0
FFFFC0
1E0000
1E0000
3C0000
3C0000
ENDCHAR

STARTCHAR greaterequal
ENCODING 190
SWIDTH 565 0
DWIDTH 22 0
BBX 20 21 1 0
BITMAP
800000
F00000
FF0000
FFE000
FFFC00
0FFF80
00FFF0
000FF0
000FF0
00FFF0
0FFF80
FFFC00
FFE000
FF0000
F00000
800000
000000
FFFFF0
FFFFF0
FFFFF0
FFFFF0
ENDCHAR

STARTCHAR integral
ENCODING 191
SWIDTH 565 0
DWIDTH 22 0
BBX 19 36 2 -8
BITMAP
001F00
007FC0
00FFE0
00FFE0
01F9E0
01F9E0
01F800
01F800
01F800
01F800
01F800
01F800
01F800
01F800
01F800
01F800
01F800
01F800
01F800
01F800
01F800
01F800
01F800
01F800
01F800
01F800
01F800
01F800
01F800
01F800
F9F800
F9F800
FFF800
FFF000
7FF000
1FC000
ENDCHAR

STARTCHAR therefore
ENCODING 192
SWIDTH 565 0
DWIDTH 22 0
BBX 20 20 1 0
BITMAP
00F000
00F000
03FC00
03FC00
03FC00
03FC00
00F000
00F000
000000
000000
000000
000000
3C03C0
3C03C0
FF0FF0
FF0FF0
FF0FF0
FF0FF0
3C03C0
3C03C0
ENDCHAR

STARTCHAR proportional
ENCODING 193
SWIDTH 565 0
DWIDTH 22 0
BBX 20 16 1 2
BITMAP
0F81F0
3FE7F0
7FEFF0
7FFFF0
F8FF00
F07E00
F03C00
F03C00
F03C00
F03C00
F07E00
F8FF00
7FFFF0
7FEFF0
3FE7F0
0F81F0
ENDCHAR

STARTCHAR infinity
ENCODING 194
SWIDTH 565 0
DWIDTH 22 0
BBX 22 16 0 2
BITMAP
0F87C0
3FCFF0
7FFFF8
7FFFF8
F8FC7C
F0783C
F0703C
F0703C
F0303C
F0383C
F0783C
F8FC7C
7FFFF8
7FFFF8
3FCFF0
0F87C0
ENDCHAR

STARTCHAR divide
ENCODING 195
SWIDTH 565 0
DWIDTH 22 0
BBX 20 20 1 0
BITMAP
00F000
00F000
03FC00
03FC00
00F000
00F000
000000
000000
FFFFF0
FFFFF0
FFFFF0
FFFFF0
000000
000000
00F000
00F000
03FC00
03FC00
00F000
00F000
ENDCHAR

STARTCHAR Delta
ENCODING 196
SWIDTH 565 0
DWIDTH 22 0
BBX 20 22 1 0
BITMAP
00F000
00F000
01F800
01F800
03FC00
03FC00
07FE00
07FE00
0F9F00
0F9F00
1F0F80
1F0F80
3E07C0
3E07C0
7C03E0
7C03E0
F801F0
F801F0
FFFFF0
FFFFF0
FFFFF0
FFFFF0
ENDCHAR

STARTCHAR gradient
ENCODING 197
SWIDTH 565 0
DWIDTH 22 0
BBX 20 22 1 0
BITMAP
FFFFF0
FFFFF0
FFFFF0
FFFFF0
F801F0
F801F0
7C03E0
7C03E0
3E07C0
3E07C0
1F0F80
1F0F80
0F9F00
0F9F00
07FE00
07FE00
03FC00
03FC00
01F800
01F800
00F000
00F000
ENDCHAR

STARTCHAR Phi
ENCODING 198
SWIDTH 565 0
DWIDTH 22 0
BBX 18 22 2 0
BITMAP
0FFC00
0FFC00
03F000
03F000
1FFE00
3FFF00
7FFF80
7FFF80
F3F3C0
F3F3C0
F3F3C0
F3F3C0
F3F3C0
F3F3C0
7FFF80
7FFF80
3FFF00
1FFE00
03F000
03F000
0FFC00
0FFC00
ENDCHAR

STARTCHAR Gamma
ENCODING 199
SWIDTH 565 0
DWIDTH 22 0
BBX 18 22 2 0
BITMAP
FFFFC0
FFFFC0
FFFFC0
FFFFC0
3F03C0
3F03C0
3F03C0
3F03C0
3F03C0
3F0000
3F0000
3F0000
3F0000
3F0000
3F0000
3F0000
3F0000
3F0000
FFF000
FFF000
FFF000
FFF000
ENDCHAR

STARTCHAR similar
ENCODING 200
SWIDTH 565 0
DWIDTH 22 0
BBX 18 6 2 8
BITMAP
1F03C0
7FC3C0
7FFFC0
FFFF80
F0FF80
F03E00
ENDCHAR

STARTCHAR approxequal
ENCODING 201
SWIDTH 565 0
DWIDTH 22 0
BBX 18 12 2 4
BITMAP
1F03C0
7FC3C0
7FFFC0
FFFF80
F0FF80
F03E00
000000
000000
FFFFC0
FFFFC0
FFFFC0
FFFFC0
ENDCHAR

STARTCHAR Theta
ENCODING 202
SWIDTH 565 0
DWIDTH 22 0
BBX 20 22 1 0
BITMAP
03FC00
0FFF00
3FFFC0
3FFFC0
7E07E0
7E07E0
7C03E0
FC03F0
FCF3F0
FCF3F0
FCF3F0
FCF3F0
FCF3F0
FC03F0
FC03F0
7C03E0
7E07E0
7E07E0
3FFFC0
3FFFC0
0FFF00
03FC00
ENDCHAR

STARTCHAR multiply
ENCODING 203
SWIDTH 565 0
DWIDTH 22 0
BBX 16 16 3 2
BITMAP
2004
700E
F81F
FC3F
7E7E
3FFC
1FF8
0FF0
07E0
0FF0
1FF8
3FFC
7E7E
FC3F
781E
300C
ENDCHAR

STARTCHAR Lambda
ENCODING 204
SWIDTH 565 0
DWIDTH 22 0
BBX 20 22 1 0
BITMAP
00F000
00F000
01F800
01F800
03FC00
03FC00
07FE00
07FE00
0F9F00
0F9F00
1F0F80
1F0F80
3E07C0
3E07C0
7C03E0
7C03E0
F801F0
F801F0
FE07F0
FE07F0
FE07F0
FE07F0
ENDCHAR

STARTCHAR arrowdblboth
ENCODING 205
SWIDTH 565 0
DWIDTH 22 0
BBX 22 18 0 2
BITMAP
010200
030300
070380
0E01C0
1FFFE0
3FFFF0
7FFFF8
FFFFFC
FC00FC
FC00FC
FFFFFC
7FFFF8
3FFFF0
1FFFE0
0E01C0
070380
030300
010200
ENDCHAR

STARTCHAR arrowdblright
ENCODING 206
SWIDTH 565 0
DWIDTH 22 0
BBX 22 18 0 2
BITMAP
000200
000300
000380
0001C0
FFFFE0
FFFFF0
FFFFF8
FFFFFC
0000FC
0000FC
FFFFFC
FFFFF8
FFFFF0
FFFFE0
0001C0
000380
000300
000200
ENDCHAR

STARTCHAR equivalence
ENCODING 207
SWIDTH 565 0
DWIDTH 22 0
BBX 18 16 2 2
BITMAP
FFFFC0
FFFFC0
FFFFC0
FFFFC0
000000
000000
FFFFC0
FFFFC0
FFFFC0
FFFFC0
000000
000000
FFFFC0
FFFFC0
FFFFC0
FFFFC0
ENDCHAR

STARTCHAR Pi
ENCODING 208
SWIDTH 565 0
DWIDTH 22 0
BBX 20 22 1 0
BITMAP
FFFFF0
FFFFF0
FFFFF0
FFFFF0
3F0FC0
3F0FC0
3F0FC0
3F0FC0
3F0FC0
3F0FC0
3F0FC0
3F0FC0
3F0FC0
3F0FC0
3F0FC0
3F0FC0
3F0FC0
3F0FC0
FF0FF0
FF0FF0
FF0FF0
FF0FF0
ENDCHAR

STARTCHAR Psi
ENCODING 209
SWIDTH 565 0
DWIDTH 22 0
BBX 18 22 2 0
BITMAP
0FFC00
0FFC00
03F000
03F000
F3F3C0
F3F3C0
F3F3C0
F3F3C0
F3F3C0
F3F3C0
F3F3C0
F3F3C0
FFFFC0
7FFF80
7FFF80
1FFE00
03F000
03F000
03F000
03F000
0FFC00
0FFC00
ENDCHAR

STARTCHAR Sigma
ENCODING 211
SWIDTH 565 0
DWIDTH 22 0
BBX 20 22 1 0
BITMAP
FFFFF0
FFFFF0
FFFFF0
FFFFF0
7E00F0
3F00F0
1F80F0
0FC0F0
07E000
03F000
01F800
01F800
03F000
07E000
0FC0F0
1F80F0
3F00F0
7E00F0
FFFFF0
FFFFF0
FFFFF0
FFFFF0
ENDCHAR

STARTCHAR radical
ENCODING 214
SWIDTH 565 0
DWIDTH 22 0
BBX 20 32 2 -4
BITMAP
0001F0
0001F0
0001F0
0003E0
0003E0
0003C0
0007C0
0007C0
000780
000F80
F80F80
F80F00
F81F00
F81F00
7C1F00
7C1E00
3C3E00
3C3E00
3E3C00
1E7C00
1E7C00
1E7800
1FF800
0FF800
0FF000
0FF000
07F000
07E000
07E000
03E000
03C000
03C000
ENDCHAR

STARTCHAR Omega
ENCODING 215
SWIDTH 565 0
DWIDTH 22 0
BBX 18 22 2 0
BITMAP
07F800
1FFE00
3FFF00
7FFF80
7E1F80
FE1FC0
FC0FC0
FC0FC0
FC0FC0
FC0FC0
FC0FC0
FC0FC0
7C0F80
7C0F80
3E1F00
1E1E00
0F3C00
0F3C00
FF3FC0
FF3FC0
FF3FC0
FF3FC0
ENDCHAR

STARTCHAR Xi
ENCODING 216
SWIDTH 565 0
DWIDTH 22 0
BBX 18 22 2 0
BITMAP
FFFFC0
FFFFC0
FFFFC0
FFFFC0
F003C0
F003C0
000000
000000
1C0E00
1C0E00
1FFE00
1FFE00
1FFE00
1FFE00
000000
000000
F003C0
F003C0
FFFFC0
FFFFC0
FFFFC0
FFFFC0
ENDCHAR

STARTCHAR Upsilon1
ENCODING 217
SWIDTH 565 0
DWIDTH 22 0
BBX 18 22 2 0
BITMAP
FC0FC0
FC0FC0
FC0FC0
FE1FC0
3E1F00
3E1F00
1F3E00
1F3E00
0F3C00
0F3C00
07F800
07F800
07F800
03F000
03F000
03F000
03F000
03F000
3FFF00
3FFF00
3FFF00
3FFF00
ENDCHAR

STARTCHAR propersubset
ENCODING 218
SWIDTH 565 0
DWIDTH 22 0
BBX 18 20 2 1
BITMAP
07FFC0
1FFFC0
3FFFC0
7FFFC0
7E0000
FC0000
FC0000
FC0000
FC0000
FC0000
FC0000
FC0000
FC0000
FC0000
FC0000
7E0000
7FFFC0
3FFFC0
1FFFC0
07FFC0
ENDCHAR

STARTCHAR propersuperset
ENCODING 219
SWIDTH 565 0
DWIDTH 22 0
BBX 18 20 2 1
BITMAP
FFF800
FFFE00
FFFF00
FFFF80
001F80
000FC0
000FC0
000FC0
000FC0
000FC0
000FC0
000FC0
000FC0
000FC0
000FC0
001F80
FFFF80
FFFF00
FFFE00
FFF800
ENDCHAR

STARTCHAR intersection
ENCODING 220
SWIDTH 565 0
DWIDTH 22 0
BBX 20 20 1 1
BITMAP
07FE00
1FFF80
3FFFC0
7FFFE0
7E07E0
FC03F0
FC03F0
FC03F0
FC03F0
FC03F0
FC03F0
FC03F0
FC03F0
FC03F0
FC03F0
FC03F0
FC03F0
FC03F0
FC03F0
FC03F0
ENDCHAR

STARTCHAR union
ENCODING 221
SWIDTH 565 0
DWIDTH 22 0
BBX 20 20 1 1
BITMAP
FC03F0
FC03F0
FC03F0
FC03F0
FC03F0
FC03F0
FC03F0
FC03F0
FC03F0
FC03F0
FC03F0
FC03F0
FC03F0
FC03F0
FC03F0
7E07E0
7FFFE0
3FFFC0
1FFF80
07FE00
ENDCHAR

STARTCHAR logicaland
ENCODING 222
SWIDTH 565 0
DWIDTH 22 0
BBX 20 20 1 1
BITMAP
01F800
03FC00
03FC00
07FE00
07FE00
07FE00
0F9F00
0F9F00
0F9F00
1F9F80
1F0F80
1F0F80
3F0FC0
3E07C0
3E07C0
7E07E0
7E07E0
7C03E0
FC03F0
FC03F0
ENDCHAR

STARTCHAR logicalor
ENCODING 223
SWIDTH 565 0
DWIDTH 22 0
BBX 20 20 1 1
BITMAP
FC03F0
FC03F0
7C03E0
7E07E0
7E07E0
3E07C0
3E07C0
3F0FC0
1F0F80
1F0F80
1F9F80
0F9F00
0F9F00
0F9F00
07FE00
07FE00
07FE00
03FC00
03FC00
01F800
ENDCHAR

STARTCHAR logicalnot
ENCODING 224
SWIDTH 565 0
DWIDTH 22 0
BBX 18 12 2 4
BITMAP
FFFFC0
FFFFC0
FFFFC0
FFFFC0
000FC0
000FC0
000FC0
000FC0
000FC0
000FC0
000FC0
000FC0
ENDCHAR

STARTCHAR alpha
ENCODING 225
SWIDTH 565 0
DWIDTH 22 0
BBX 20 18 1 0
BITMAP
03E0F0
0FF8F0
1FFDF0
3FFFF0
7E1FC0
7E0FC0
FC0F80
FC0F80
FC0F00
FC0F00
FC0F00
FC1F00
FC1F00
FE3F80
7FFFF0
7FFFF0
3FF3F0
0FC1F0
ENDCHAR

STARTCHAR beta
ENCODING 226
SWIDTH 565 0
DWIDTH 22 0
BBX 21 32 0 -8
BITMAP
007FC0
01FFF0
03FFF0
03FFF8
07C1F8
07C0F8
0780F8
0F80F8
0F80F0
0F01F0
0F1FE0
1F1FE0
1F1FF0
1F1FF0
1E01F8
3E01F8
3E01F8
3E01F8
3F01F8
3F83F8
3FFFF0
7FFFF0
79FFE0
787F80
780000
780000
F80000
F00000
F00000
F00000
F00000
F00000
ENDCHAR

STARTCHAR chi
ENCODING 227
SWIDTH 565 0
DWIDTH 22 0
BBX 20 26 1 -8
BITMAP
3E0030
3E0070
1F00F0
1F00F0
0F81F0
0F83F0
07C7E0
07CFC0
03FF80
03FF00
01FE00
01FC00
00FC00
01F800
03FC00
07FC00
0FFC00
1FBE00
3F3E00
7E1E00
FC1F00
F80F00
F00F80
F00780
E007C0
C007C0
ENDCHAR

STARTCHAR delta
ENCODING 228
SWIDTH 565 0
DWIDTH 22 0
BBX 20 24 1 0
BITMAP
00FFF0
01FFF0
03FFF0
03FFF0
03F000
03F000
01F800
00FC00
07FE00
0FFF00
3FFF80
3F9FC0
7E0FE0
7E07E0
FC03F0
FC03F0
FC03F0
FC03F0
FC03F0
FE07E0
7FFFE0
7FFFC0
3FFF80
0FFE00
ENDCHAR

STARTCHAR epsilon
ENCODING 229
SWIDTH 565 0
DWIDTH 22 0
BBX 18 18 2 0
BITMAP
03FF00
0FFF80
1FFFC0
3FFFC0
3F0000
7E0000
7FFE00
FFFE00
FFFE00
FFFE00
FC0000
FC0000
FC0000
FC0000
7FFF00
7FFF00
3FFE00
0FFC00
ENDCHAR

STARTCHAR phi
ENCODING 230
SWIDTH 565 0
DWIDTH 22 0
BBX 18 32 2 -8
BITMAP
007800
007800
007800
007800
00F000
00F000
07FE00
1FFF00
3FFF80
3FFF80
7CE7C0
78E7C0
F8E3C0
F0E3C0
F1E3C0
F1E3C0
F1C3C0
F1C7C0
F9C780
F9CF80
7FFF00
7FFF00
3FFE00
1FF800
078000
078000
078000
078000
0F0000
0F0000
0F0000
0F0000
ENDCHAR

STARTCHAR gamma
ENCODING 231
SWIDTH 565 0
DWIDTH 22 0
BBX 20 26 1 -8
BITMAP
FC01F0
FC01F0
FC03F0
FC03F0
3E07C0
3E07C0
1F0F80
1F0F80
0F9F00
0F9F00
07FE00
07FE00
03FC00
03FC00
01F800
01F800
01F000
01F000
03E000
03E000
07C000
07C000
0F8000
0F8000
1F0000
1F0000
ENDCHAR

STARTCHAR eta
ENCODING 232
SWIDTH 565 0
DWIDTH 22 0
BBX 20 26 1 -8
BITMAP
FF0FC0
FF3FE0
FFFFE0
FFFFF0
3FE3F0
3F83F0
3F03F0
3F03F0
3E03F0
3E03F0
7E07E0
7E07E0
7C07E0
7C07E0
7C07C0
FC0FC0
FC0FC0
FC0FC0
000F80
000F80
001F80
001F80
001F00
001F00
003F00
003F00
ENDCHAR

STARTCHAR iota
ENCODING 233
SWIDTH 565 0
DWIDTH 22 0
BBX 14 18 4 0
BITMAP
FFC0
FFC0
FFC0
FFC0
0FC0
0F80
0F80
0F80
1F80
1F00
1F00
3F00
3F1C
3F1C
3FFC
1FFC
1FF8
07F0
ENDCHAR

STARTCHAR theta
ENCODING 234
SWIDTH 565 0
DWIDTH 22 0
BBX 20 24 1 0
BITMAP
00FF00
03FFC0
07FFC0
0FFFE0
1F83E0
1F01F0
3E01F0
3E01F0
7C01F0
7C01F0
7FFFF0
FFFFF0
FFFFF0
FFFFE0
F803E0
F803E0
F807C0
F807C0
F80F80
7C1F80
7FFF00
3FFE00
3FFC00
0FF000
ENDCHAR

STARTCHAR kappa
ENCODING 235
SWIDTH 565 0
DWIDTH 22 0
BBX 18 18 2 0
BITMAP
FE03C0
FE07C0
FE0FC0
3E1F00
3E3E00
3E7C00
3EF800
3FF000
7FE000
7FF000
7FF000
7FF800
7CFC00
F87C00
F83E00
F81F00
F81FC0
F80FC0
ENDCHAR

STARTCHAR lambda
ENCODING 236
SWIDTH 565 0
DWIDTH 22 0
BBX 21 24 0 0
BITMAP
0FF000
0FF000
0FF800
0FF800
00F800
00FC00
007C00
007C00
00FC00
00FE00
01FE00
01FE00
03FF00
03EF00
07CF00
07CF80
0F8F80
0F8780
1F07C0
1F07C0
3E07C0
3E03E0
FC03F8
FC03F8
ENDCHAR

STARTCHAR nu
ENCODING 238
SWIDTH 565 0
DWIDTH 22 0
BBX 20 18 1 0
BITMAP
FFC3F0
FFC3F0
FFC3F0
FFC3F0
0FC3F0
0FC3F0
0FC3F0
0FC3E0
0FC3E0
0FC7E0
0FC7C0
0FCFC0
0FDF80
0FFF00
0FFE00
0FFC00
0FF800
0FF000
ENDCHAR

STARTCHAR partialdiff
ENCODING 239
SWIDTH 565 0
DWIDTH 22 0
BBX 16 24 3 0
BITMAP
3FC0
3FF0
3FFC
3FFC
00FE
003E
003F
001F
0FDF
3FFF
7FFF
7FFF
FE3F
FC1F
FC1F
FC1F
FC1F
FC1F
FC3F
FE3E
7FFE
7FFC
3FF8
0FE0
ENDCHAR

STARTCHAR pi
ENCODING 240
SWIDTH 565 0
DWIDTH 22 0
BBX 21 18 1 0
BITMAP
FFFFF8
FFFFF8
FFFFF8
FFFFF8
3E07C0
3E0780
3E0780
3E0780
7C0F80
7C0F80
7C0F00
7C0F00
7C0F00
7C1F00
F81FC0
F81FC0
F81FC0
F81FC0
ENDCHAR

STARTCHAR psi
ENCODING 241
SWIDTH 565 0
DWIDTH 22 0
BBX 18 32 2 -8
BITMAP
00F000
00F000
00F000
00F000
00F000
00F000
78F3C0
78F3C0
78F3C0
78F3C0
79E3C0
79E3C0
F1E3C0
F1E3C0
F1E3C0
F1E3C0
F1E3C0
F1E7C0
F1E780
F1EF80
FFFF00
7FFF00
7FFE00
1FF800
078000
078000
078000
078000
078000
078000
078000
078000
ENDCHAR

STARTCHAR rho
ENCODING 242
SWIDTH 565 0
DWIDTH 22 0
BBX 20 26 1 -8
BITMAP
01FC00
07FF00
1FFFC0
1FFFC0
3F07E0
3F07E0
3E03F0
7E03F0
7E03F0
7E03F0
7E03F0
7E03F0
7F07E0
7F07E0
7FFFC0
7FFFC0
FBFF00
F9FC00
F80000
F80000
F80000
F80000
F80000
F80000
F80000
F80000
ENDCHAR

STARTCHAR sigma
ENCODING 243
SWIDTH 565 0
DWIDTH 22 0
BBX 21 18 1 0
BITMAP
00FFF8
07FFF8
0FFFF8
3FFFF8
3F87E0
7F03E0
7E03F0
FE03F0
FC03F0
FC03F0
FC07F0
FC07F0
FC0FE0
7E1FE0
7FFFC0
3FFF80
1FFF00
07FC00
ENDCHAR

STARTCHAR tau
ENCODING 244
SWIDTH 565 0
DWIDTH 22 0
BBX 18 18 2 0
BITMAP
FFFFC0
FFFFC0
FFFFC0
FFFFC0
03E000
03E000
03C000
07C000
07C000
07C000
0F8000
0F8000
0F81C0
0F81C0
0FFFC0
07FFC0
07FF80
01FE00
ENDCHAR

STARTCHAR florin
ENCODING 246
SWIDTH 565 0
DWIDTH 22 0
BBX 20 28 1 -6
BITMAP
0007F0
001FF0
003FF0
003FF0
007E00
007C00
007C00
007C00
0FFFC0
0FFFC0
0FFFC0
0FFFC0
00F800
00F800
00F800
00F000
01F000
01F000
01F000
01E000
03E000
03E000
03E000
07C000
FFC000
FFC000
FF8000
FE0000
ENDCHAR

STARTCHAR omega
ENCODING 247
SWIDTH 565 0
DWIDTH 22 0
BBX 20 18 1 0
BITMAP
7E03F0
7E03F0
7E03F0
7E03F0
7E03F0
7E03F0
7CF3F0
FCF3F0
FCF3F0
FCF3F0
FCF3E0
FCF3E0
FCF3E0
FCF3C0
7FFFC0
7FFFC0
7F3F80
1E3F00
ENDCHAR

STARTCHAR xi
ENCODING 248
SWIDTH 565 0
DWIDTH 22 0
BBX 18 32 2 -8
BITMAP
3FFFC0
3FFFC0
3FFFC0
3FFFC0
03F000
07E000
0FC000
0FC000
0F8000
0F8000
07FC00
07FC00
1FFC00
3FFC00
7E0000
7C0000
FC0000
FC0000
FC0000
FE0000
7FFC00
7FFE00
3FFF00
0FFF00
001F00
001F00
003E00
003E00
007C00
007800
00F000
00E000
ENDCHAR

STARTCHAR upsilon
ENCODING 249
SWIDTH 565 0
DWIDTH 22 0
BBX 18 18 2 0
BITMAP
3E07C0
3E07C0
3E07C0
3E07C0
7E07C0
7C0FC0
7C0FC0
7C0FC0
FC0FC0
FC0F80
F80F80
F81F80
F81F00
FC3F00
7FFE00
7FFC00
3FF800
0FE000
ENDCHAR

STARTCHAR zeta
ENCODING 250
SWIDTH 565 0
DWIDTH 22 0
BBX 18 32 2 -8
BITMAP
3FFFC0
3FFFC0
3FFFC0
3FFFC0
007E00
00FC00
01F800
03F000
07E000
0FC000
1F8000
3F0000
7E0000
7E0000
FC0000
FC0000
FC0000
FC0000
FC0000
FE0000
7FFE00
7FFF80
3FFF80
0FFFC0
0007C0
0007C0
000F80
000F80
001F00
003E00
003C00
003000
ENDCHAR

STARTCHAR arrowleft
ENCODING 251
SWIDTH 565 0
DWIDTH 22 0
BBX 20 18 2 1
BITMAP
008000
01C000
03E000
07C000
0F8000
1F0000
3E0000
7FFFF0
FFFFF0
FFFFF0
7FFFF0
3E0000
1F0000
0F8000
07C000
03E000
01C000
008000
ENDCHAR

STARTCHAR arrowup
ENCODING 252
SWIDTH 565 0
DWIDTH 22 0
BBX 18 27 2 -3
BITMAP
00C000
01E000
03F000
07F800
0FFC00
1FFE00
3FFF00
7DEF80
F9E7C0
71E380
21E100
01E000
01E000
01E000
01E000
01E000
01E000
01E000
01E000
01E000
01E000
01E000
01E000
01E000
01E000
01E000
01E000
ENDCHAR

STARTCHAR arrowright
ENCODING 253
SWIDTH 565 0
DWIDTH 22 0
BBX 20 18 0 0
BITMAP
001000
003800
007C00
003E00
001F00
000F80
0007C0
FFFFE0
FFFFF0
FFFFF0
FFFFE0
0007C0
000F80
001F00
003E00
007C00
003800
001000
ENDCHAR

STARTCHAR arrowdown
ENCODING 254
SWIDTH 565 0
DWIDTH 22 0
BBX 18 27 1 -3
BITMAP
01E000
01E000
01E000
01E000
01E000
01E000
01E000
01E000
01E000
01E000
01E000
01E000
01E000
01E000
01E000
01E000
21E100
71E380
F9E7C0
7DEF80
3FFF00
1FFE00
0FFC00
07F800
03F000
01E000
00C000
ENDCHAR
ENDFONT
